Dead Cat Bounce is an Irish comedy band made up of Demian Fox (drums), Shane O'Brien (bass) and James Walmsley (guitar and lead vocals). Based in Dublin, but touring all over the world, the group perform all-original comedy songs in variety of musical styles.


File info:
Complete name                            : Dead Cat Bounce - Phone Company HQ.DVDrip x264 AC3 DeViL303.mkv
Format                                   : Matroska
Format version                           : Version 1
File size                                : 27.5 MiB
Duration                                 : 1mn 32s
Overall bit rate mode                    : Variable
Overall bit rate                         : 2 491 Kbps
Encoded date                             : UTC 2013-02-23 23:41:46
Writing application                      : mkvmerge v2.5.3 ('Boogie') built on Mar  7 2009 15:00:41
Writing library                          : libebml v0.7.7 + libmatroska v0.8.1

Video
ID                                       : 1
Format                                   : AVC
Format/Info                              : Advanced Video Codec
Format profile                           : High@L3.0
Format settings, CABAC                   : Yes
Format settings, ReFrames                : 3 frames
Codec ID                                 : V_MPEG4/ISO/AVC
Duration                                 : 1mn 32s
Bit rate mode                            : Variable
Bit rate                                 : 2 303 Kbps
Maximum bit rate                         : 12.0 Mbps
Width                                    : 720 pixels
Height                                   : 480 pixels
Display aspect ratio                     : 16:9
Original display aspect ratio            : 3:2
Frame rate mode                          : Constant
Frame rate                               : 29.970 fps
Standard                                 : NTSC
Color space                              : YUV
Chroma subsampling                       : 4:2:0
Bit depth                                : 8 bits
Scan type                                : Progressive
Bits/(Pixel*Frame)                       : 0.222
Stream size                              : 24.9 MiB (90%)
Writing library                          : x264 core 93 r1542M 5b86182
Encoding settings                        : cabac=1 / ref=4 / deblock=1:-1:-1 / 
Default                                  : Yes
Forced                                   : No

Audio
ID                                       : 2
Format                                   : AC-3
Format/Info                              : Audio Coding 3
Mode extension                           : CM (complete main)
Format settings, Endianness              : Big
Codec ID                                 : A_AC3
Duration                                 : 1mn 32s
Bit rate mode                            : Constant
Bit rate                                 : 192 Kbps
Channel(s)                               : 2 channels
Channel positions                        : Front: L R
Sampling rate                            : 48.0 KHz
Bit depth                                : 16 bits
Compression mode                         : Lossy
Stream size                              : 2.12 MiB (8%)
Default                                  : Yes
Forced                                   : No

Text
ID                                       : 3
Format                                   : SSA
Codec ID                                 : S_TEXT/SSA
Codec ID/Info                            : Sub Station Alpha
Compression mode                         : Lossless
Default                                  : Yes
Forced                                   : No

Menu
00:00:00.000                             : en:Chapter 1n[00:00:00]
00:00:08.438                             : en:Chapter 2n[00:00:08]
00:00:16.877                             : en:Chapter 3n[00:00:16]
00:00:25.316                             : en:Chapter 4n[00:00:25]
00:00:33.754                             : en:Chapter 5n[00:00:33]
00:00:42.193                             : en:Chapter 6n[00:00:42]
00:00:50.632                             : en:Chapter 7n[00:00:50]
00:00:59.071                             : en:Chapter 8n[00:00:59]
00:01:07.509                             : en:Chapter 9n[00:01:07]
00:01:15.948                             : en:Chapter 10n[00:01:15]
00:01:24.387                             : en:Chapter 11n[00:01:24]
00:01:30.825                             : en:Chapter 12n[00:01:30]

